<svg width="254" height="77" viewBox="0 0 254 77" fill="none" xmlns="http://www.w3.org/2000/svg">
<path d="M20.8 25.072C25.536 25.072 29.6747 26.0107 33.216 27.888C36.7573 29.7653 39.488 32.4107 41.408 35.824C43.3707 39.1947 44.352 43.0987 44.352 47.536C44.352 51.9307 43.3707 55.8347 41.408 59.248C39.488 62.6613 36.736 65.3067 33.152 67.184C29.6107 69.0613 25.4933 70 20.8 70H3.968V25.072H20.8ZM20.096 60.528C24.2347 60.528 27.456 59.3973 29.76 57.136C32.064 54.8747 33.216 51.6747 33.216 47.536C33.216 43.3973 32.064 40.176 29.76 37.872C27.456 35.568 24.2347 34.416 20.096 34.416H14.912V60.528H20.096ZM80.932 51.568C80.932 52.592 80.868 53.6587 80.74 54.768H55.972C56.1427 56.9867 56.8467 58.6933 58.084 59.888C59.364 61.04 60.9213 61.616 62.756 61.616C65.4867 61.616 67.3853 60.464 68.452 58.16H80.1C79.5027 60.5067 78.4147 62.6187 76.836 64.496C75.3 66.3733 73.3587 67.8453 71.012 68.912C68.6653 69.9787 66.0413 70.512 63.14 70.512C59.6413 70.512 56.5267 69.7653 53.796 68.272C51.0653 66.7787 48.932 64.6453 47.396 61.872C45.86 59.0987 45.092 55.856 45.092 52.144C45.092 48.432 45.8387 45.1893 47.332 42.416C48.868 39.6427 51.0013 37.5093 53.732 36.016C56.4627 34.5227 59.5987 33.776 63.14 33.776C66.596 33.776 69.668 34.5013 72.356 35.952C75.044 37.4027 77.1347 39.472 78.628 42.16C80.164 44.848 80.932 47.984 80.932 51.568ZM69.732 48.688C69.732 46.8107 69.092 45.3173 67.812 44.208C66.532 43.0987 64.932 42.544 63.012 42.544C61.1773 42.544 59.62 43.0773 58.34 44.144C57.1027 45.2107 56.3347 46.7253 56.036 48.688H69.732ZM96.3695 59.76L104.114 34.288H115.762L103.09 70H89.5855L76.9135 34.288H88.6255L96.3695 59.76ZM127.472 61.552H141.808V70H116.528V25.072H127.472V61.552ZM176.852 51.568C176.852 52.592 176.788 53.6587 176.66 54.768H151.892C152.063 56.9867 152.767 58.6933 154.004 59.888C155.284 61.04 156.841 61.616 158.676 61.616C161.407 61.616 163.305 60.464 164.372 58.16H176.02C175.423 60.5067 174.335 62.6187 172.756 64.496C171.22 66.3733 169.279 67.8453 166.932 68.912C164.585 69.9787 161.961 70.512 159.06 70.512C155.561 70.512 152.447 69.7653 149.716 68.272C146.985 66.7787 144.852 64.6453 143.316 61.872C141.78 59.0987 141.012 55.856 141.012 52.144C141.012 48.432 141.759 45.1893 143.252 42.416C144.788 39.6427 146.921 37.5093 149.652 36.016C152.383 34.5227 155.519 33.776 159.06 33.776C162.516 33.776 165.588 34.5013 168.276 35.952C170.964 37.4027 173.055 39.472 174.548 42.16C176.084 44.848 176.852 47.984 176.852 51.568ZM165.652 48.688C165.652 46.8107 165.012 45.3173 163.732 44.208C162.452 43.0987 160.852 42.544 158.932 42.544C157.097 42.544 155.54 43.0773 154.26 44.144C153.023 45.2107 152.255 46.7253 151.956 48.688H165.652ZM196.322 70.512C192.823 70.512 189.666 69.7653 186.85 68.272C184.076 66.7787 181.879 64.6453 180.258 61.872C178.679 59.0987 177.89 55.856 177.89 52.144C177.89 48.4747 178.7 45.2533 180.322 42.48C181.943 39.664 184.162 37.5093 186.978 36.016C189.794 34.5227 192.951 33.776 196.45 33.776C199.948 33.776 203.106 34.5227 205.922 36.016C208.738 37.5093 210.956 39.664 212.578 42.48C214.199 45.2533 215.01 48.4747 215.01 52.144C215.01 55.8133 214.178 59.056 212.514 61.872C210.892 64.6453 208.652 66.7787 205.794 68.272C202.978 69.7653 199.82 70.512 196.322 70.512ZM196.322 61.04C198.412 61.04 200.183 60.272 201.634 58.736C203.127 57.2 203.874 55.0027 203.874 52.144C203.874 49.2853 203.148 47.088 201.698 45.552C200.29 44.016 198.54 43.248 196.45 43.248C194.316 43.248 192.546 44.016 191.138 45.552C189.73 47.0453 189.026 49.2427 189.026 52.144C189.026 55.0027 189.708 57.2 191.074 58.736C192.482 60.272 194.231 61.04 196.322 61.04Z" fill="white"/>
<rect x="217" y="70" width="9" height="35" transform="rotate(-90 217 70)" fill="white"/>
</svg>
